# xmcd CD database file
#
# Track frame offsets:
#	150
#	12616
#	29429
#	41668
#	56241
#	69049
#	84885
#	96674
#	111478
#	125125
#	138346
#	150645
#	164784
#	179417
#	192267
#	207236
#	221081
#	234383
#	249576
#	258517
#	272506
#	286545
#	300284
#	309470
#	323545
#
# Disc length: 4496 seconds
#
# Revision: 1
# Processed by: cddbd v1.5.2PL0 Copyright (c) Steve Scherf et al.
# Submitted via: CDex 1.70beta2
#
DISCID=6b118e19
DTITLE=Doris Day - Autograph Collection CD 2
DYEAR=2006
DGENRE=Jazz
TTITLE0=A Guy Is A Guy
TTITLE1=Secret Love
TTITLE2=Doris Day and Johnnie Ray - Let's Walk That-A-Way
TTITLE3=April In Paris
TTITLE4=A Bushel And A Peck
TTITLE5=It's Magic
TTITLE6=I Got The Sun In The Morning
TTITLE7=Too Marvellous For Words
TTITLE8=It's A Lovely Day Today
TTITLE9=You're Getting To Be A Habit With Me
TTITLE10=It Had To Be You
TTITLE11=Come To Baby, Do!
TTITLE12=I'll String Along With You
TTITLE13=Someone Like You
TTITLE14=I Only Have Eyes For You
TTITLE15=Would I Love You (Love You, Love You)
TTITLE16=In A Shanty In Old Shanty Town
TTITLE17=My Dreams Are Getting Better All The Time
TTITLE18=I'll Never Stop Loving You
TTITLE19=I've Never Been In Love Before
TTITLE20=You Won't Be Satisfied (Until You Break My Heart)
TTITLE21=Pretty Baby
TTITLE22=Sugarbush
TTITLE23=That Old Feeling
TTITLE24=Till The End Of Time
EXTD=YEAR: 2006
EXTT0=
EXTT1=
EXTT2=
EXTT3=
EXTT4=
EXTT5=
EXTT6=
EXTT7=
EXTT8=
EXTT9=
EXTT10=
EXTT11=
EXTT12=
EXTT13=
EXTT14=
EXTT15=
EXTT16=
EXTT17=
EXTT18=
EXTT19=
EXTT20=
EXTT21=
EXTT22=
EXTT23=
EXTT24=
PLAYORDER=
